<svg width="64" height="64" viewBox="0 0 64 64" fill="none" xmlns="http://www.w3.org/2000/svg">
<circle cx="32" cy="32" r="32" fill="#FB7462"/>
<path fill-rule="evenodd" clip-rule="evenodd" d="M31.1771 40.2928C31.2321 40.6922 31.5795 41 31.9999 41C32.4585 41 32.8302 40.6337 32.8302 40.1818V25.8001L38.0813 30.9953L38.1743 31.0747C38.4989 31.313 38.9602 31.2876 39.2556 30.9977C39.5805 30.6788 39.5816 30.1608 39.258 29.8406L32.5996 23.2523C32.5614 23.213 32.5194 23.1776 32.474 23.1464C32.1498 22.9234 31.6999 22.9548 31.4111 23.2407L24.7419 29.8407L24.6617 29.9326C24.4213 30.2534 24.449 30.7079 24.7445 30.9977C25.0694 31.3166 25.5951 31.3155 25.9187 30.9953L31.1696 25.7988V40.1818L31.1771 40.2928Z" fill="white"/>
</svg>
